<svg width="62" height="62" viewBox="0 0 62 62" fill="none" xmlns="http://www.w3.org/2000/svg">
<path d="M41.5418 31.4201C42.8148 31.4201 44.0357 31.9258 44.9359 32.826C45.8361 33.7262 46.3418 34.9471 46.3418 36.2201V37.8201C46.3418 44.1273 40.3898 50.6201 30.3418 50.6201C20.2938 50.6201 14.3418 44.1273 14.3418 37.8201V36.2201C14.3418 34.9471 14.8475 33.7262 15.7477 32.826C16.6479 31.9258 17.8688 31.4201 19.1418 31.4201H41.5418ZM41.5418 34.6201H19.1418C18.7175 34.6201 18.3105 34.7887 18.0104 35.0887C17.7104 35.3888 17.5418 35.7958 17.5418 36.2201V37.8201C17.5418 42.4217 22.1242 47.4201 30.3418 47.4201C38.5594 47.4201 43.1418 42.4217 43.1418 37.8201V36.2201C43.1418 35.7958 42.9732 35.3888 42.6732 35.0887C42.3731 34.7887 41.9661 34.6201 41.5418 34.6201ZM30.3418 10.6201C32.6757 10.6201 34.914 11.5473 36.5643 13.1976C38.2147 14.8479 39.1418 17.0862 39.1418 19.4201C39.1418 21.754 38.2147 23.9923 36.5643 25.6427C34.914 27.293 32.6757 28.2201 30.3418 28.2201C28.0079 28.2201 25.7696 27.293 24.1193 25.6427C22.4689 23.9923 21.5418 21.754 21.5418 19.4201C21.5418 17.0862 22.4689 14.8479 24.1193 13.1976C25.7696 11.5473 28.0079 10.6201 30.3418 10.6201ZM30.3418 13.8201C28.8566 13.8201 27.4322 14.4101 26.382 15.4603C25.3318 16.5105 24.7418 17.9349 24.7418 19.4201C24.7418 20.9053 25.3318 22.3297 26.382 23.3799C27.4322 24.4301 28.8566 25.0201 30.3418 25.0201C31.827 25.0201 33.2514 24.4301 34.3016 23.3799C35.3518 22.3297 35.9418 20.9053 35.9418 19.4201C35.9418 17.9349 35.3518 16.5105 34.3016 15.4603C33.2514 14.4101 31.827 13.8201 30.3418 13.8201Z" fill="#1D77FF"/>
</svg>
