<svg width="36" height="36" viewBox="0 0 36 36" fill="none" xmlns="http://www.w3.org/2000/svg">
<path d="M14.625 2.25V6.75L12.375 7.875L9 4.5L4.5 9L7.875 12.375L6.75 14.625H2.25V21.375H6.75L7.875 23.625L4.5 27L9 31.5L12.375 28.125L14.625 29.25V33.75H21.375V29.25L23.625 28.125L27 31.5L31.5 27L28.125 23.625L29.25 21.375H33.75V14.625H29.25L28.125 12.375L31.5 9L27 4.5L23.625 7.875L21.375 6.75V2.25H14.625Z" stroke="#3D6FE0" stroke-width="2" stroke-linecap="round" stroke-linejoin="round"/>
<path d="M18 22.5C20.4853 22.5 22.5 20.4853 22.5 18C22.5 15.5147 20.4853 13.5 18 13.5C15.5147 13.5 13.5 15.5147 13.5 18C13.5 20.4853 15.5147 22.5 18 22.5Z" stroke="#3D6FE0" stroke-width="2" stroke-linecap="round" stroke-linejoin="round"/>
</svg>
