<svg width="31" height="31" viewBox="0 0 31 31" fill="none" xmlns="http://www.w3.org/2000/svg">
<path d="M13.8593 15.5C13.8593 15.9351 14.0322 16.3524 14.3399 16.6601C14.6475 16.9678 15.0648 17.1406 15.4999 17.1406C15.9351 17.1406 16.3524 16.9678 16.66 16.6601C16.9677 16.3524 17.1406 15.9351 17.1406 15.5C17.1406 15.0649 16.9677 14.6476 16.66 14.3399C16.3524 14.0322 15.9351 13.8594 15.4999 13.8594C15.0648 13.8594 14.6475 14.0322 14.3399 14.3399C14.0322 14.6476 13.8593 15.0649 13.8593 15.5ZM20.6953 15.5C20.6953 15.9351 20.8681 16.3524 21.1758 16.6601C21.4835 16.9678 21.9008 17.1406 22.3359 17.1406C22.771 17.1406 23.1883 16.9678 23.496 16.6601C23.8037 16.3524 23.9765 15.9351 23.9765 15.5C23.9765 15.0649 23.8037 14.6476 23.496 14.3399C23.1883 14.0322 22.771 13.8594 22.3359 13.8594C21.9008 13.8594 21.4835 14.0322 21.1758 14.3399C20.8681 14.6476 20.6953 15.0649 20.6953 15.5ZM7.02339 15.5C7.02339 15.9351 7.19624 16.3524 7.50392 16.6601C7.81159 16.9678 8.22889 17.1406 8.66401 17.1406C9.09913 17.1406 9.51643 16.9678 9.82411 16.6601C10.1318 16.3524 10.3046 15.9351 10.3046 15.5C10.3046 15.0649 10.1318 14.6476 9.82411 14.3399C9.51643 14.0322 9.09913 13.8594 8.66401 13.8594C8.22889 13.8594 7.81159 14.0322 7.50392 14.3399C7.19624 14.6476 7.02339 15.0649 7.02339 15.5ZM29.623 9.56641C28.8505 7.73096 27.7431 6.0835 26.3315 4.66846C24.9297 3.26161 23.2657 2.14334 21.4335 1.37695C19.5537 0.587402 17.5576 0.1875 15.4999 0.1875H15.4316C13.3603 0.197754 11.354 0.60791 9.46723 1.41455C7.65078 2.18879 6.00232 3.30905 4.61372 4.71289C3.21577 6.12451 2.1186 7.76514 1.35981 9.59375C0.57368 11.4873 0.177196 13.5005 0.18745 15.5718C0.199048 17.9455 0.760615 20.2842 1.82807 22.4043V27.5996C1.82807 28.0166 1.99372 28.4165 2.28858 28.7114C2.58344 29.0062 2.98335 29.1719 3.40034 29.1719H8.59907C10.7192 30.2393 13.0579 30.8009 15.4316 30.8125H15.5034C17.5507 30.8125 19.5366 30.416 21.4062 29.6401C23.2291 28.8829 24.8869 27.7777 26.2871 26.3862C27.6987 24.9883 28.8095 23.3545 29.5854 21.5327C30.392 19.646 30.8022 17.6396 30.8125 15.5684C30.8227 13.4868 30.4194 11.4668 29.623 9.56641ZM24.4584 24.5371C22.0624 26.9092 18.8837 28.2148 15.4999 28.2148H15.4418C13.3808 28.2046 11.3334 27.6919 9.52534 26.728L9.23823 26.5742H4.42573V21.7617L4.27192 21.4746C3.30806 19.6665 2.79536 17.6191 2.78511 15.5581C2.77143 12.1504 4.07368 8.95117 6.46284 6.5415C8.84858 4.13184 12.0375 2.79883 15.4453 2.78516H15.5034C17.2124 2.78516 18.8701 3.1167 20.4321 3.77295C21.9565 4.41211 23.3237 5.33154 24.4995 6.50732C25.6718 7.67969 26.5947 9.05029 27.2338 10.5747C27.8969 12.1538 28.2285 13.8286 28.2216 15.5581C28.2011 18.9624 26.8647 22.1514 24.4584 24.5371Z" fill="#1D77FF"/>
</svg>
