<svg width="30" height="32" viewBox="0 0 30 32" fill="none" xmlns="http://www.w3.org/2000/svg">
<path d="M11.1963 1.30022C11.6919 0.854957 12.3346 0.608643 13.0008 0.608643C13.667 0.608643 14.3097 0.854957 14.8053 1.30022L24.7053 10.194C24.987 10.4473 25.2122 10.7571 25.3664 11.1032C25.5205 11.4493 25.6001 11.824 25.5999 12.2028V13.92C24.913 13.5235 24.1472 13.2832 23.3569 13.216C22.5666 13.1489 21.7712 13.2566 21.0272 13.5315C20.2833 13.8064 19.609 14.2418 19.0522 14.8067C18.4955 15.3716 18.07 16.0521 17.8059 16.8H10.2999C10.0612 16.8 9.83229 16.8948 9.66351 17.0636C9.49472 17.2324 9.3999 17.4613 9.3999 17.7V24.9C9.3999 25.6161 9.11544 26.3029 8.60909 26.8092C8.10274 27.3155 7.41599 27.6 6.6999 27.6H3.0999C2.38382 27.6 1.69706 27.3155 1.19071 26.8092C0.684366 26.3029 0.399902 25.6161 0.399902 24.9V12.2028C0.399902 11.436 0.723902 10.707 1.2963 10.194L11.1963 1.30022ZM26.4999 18.6C26.4999 19.5548 26.1206 20.4705 25.4455 21.1456C24.7704 21.8207 23.8547 22.2 22.8999 22.2C21.9451 22.2 21.0294 21.8207 20.3543 21.1456C19.6792 20.4705 19.2999 19.5548 19.2999 18.6C19.2999 17.6452 19.6792 16.7296 20.3543 16.0544C21.0294 15.3793 21.9451 15 22.8999 15C23.8547 15 24.7704 15.3793 25.4455 16.0544C26.1206 16.7296 26.4999 17.6452 26.4999 18.6ZM29.1999 26.7C29.1999 28.941 27.3999 31.2 22.8999 31.2C18.3999 31.2 16.5999 28.95 16.5999 26.7C16.5999 25.9839 16.8844 25.2972 17.3907 24.7908C17.8971 24.2845 18.5838 24 19.2999 24H26.4999C27.216 24 27.9027 24.2845 28.4091 24.7908C28.9154 25.2972 29.1999 25.9839 29.1999 26.7Z" fill="#1D77FF"/>
</svg>
